<mxfile host="app.diagrams.net" agent="Mozilla/5.0 (Macintosh; Intel Mac OS X 10_15_7) AppleWebKit/605.1.15 (KHTML, like Gecko) Version/18.5 Safari/605.1.15" version="27.1.4">
  <diagram name="Seite-1" id="LLEtCyWinPWdS2YDN9kB">
    <mxGraphModel dx="3228" dy="2442" grid="1" gridSize="10" guides="1" tooltips="1" connect="1" arrows="1" fold="1" page="1" pageScale="1" pageWidth="827" pageHeight="1169" math="0" shadow="0">
      <root>
        <mxCell id="0" />
        <mxCell id="1" parent="0" />
        <mxCell id="4r_Y0ZmjXoZ240VpbycW-23" style="edgeStyle=orthogonalEdgeStyle;rounded=0;orthogonalLoop=1;jettySize=auto;html=1;exitX=0.5;exitY=1;exitDx=0;exitDy=0;" parent="1" source="4r_Y0ZmjXoZ240VpbycW-2" target="4r_Y0ZmjXoZ240VpbycW-8" edge="1">
          <mxGeometry relative="1" as="geometry" />
        </mxCell>
        <mxCell id="4r_Y0ZmjXoZ240VpbycW-2" value="Amazon Location Service (Karte)" style="rounded=0;whiteSpace=wrap;html=1;" parent="1" vertex="1">
          <mxGeometry x="70" y="-420" width="120" height="60" as="geometry" />
        </mxCell>
        <mxCell id="4r_Y0ZmjXoZ240VpbycW-3" value="API Gateway" style="rounded=0;whiteSpace=wrap;html=1;" parent="1" vertex="1">
          <mxGeometry x="653" y="-280" width="120" height="60" as="geometry" />
        </mxCell>
        <mxCell id="4r_Y0ZmjXoZ240VpbycW-4" value="DynamoDB (Beiträge speichern)" style="rounded=0;whiteSpace=wrap;html=1;" parent="1" vertex="1">
          <mxGeometry x="587" y="-370" width="120" height="60" as="geometry" />
        </mxCell>
        <mxCell id="4r_Y0ZmjXoZ240VpbycW-22" style="edgeStyle=orthogonalEdgeStyle;rounded=0;orthogonalLoop=1;jettySize=auto;html=1;exitX=0.5;exitY=1;exitDx=0;exitDy=0;entryX=0.5;entryY=0;entryDx=0;entryDy=0;" parent="1" source="4r_Y0ZmjXoZ240VpbycW-6" target="4r_Y0ZmjXoZ240VpbycW-7" edge="1">
          <mxGeometry relative="1" as="geometry" />
        </mxCell>
        <mxCell id="4r_Y0ZmjXoZ240VpbycW-6" value="Amazon S3 (Bilder hochladen)" style="rounded=0;whiteSpace=wrap;html=1;" parent="1" vertex="1">
          <mxGeometry x="230" y="-420" width="120" height="60" as="geometry" />
        </mxCell>
        <mxCell id="4r_Y0ZmjXoZ240VpbycW-24" style="edgeStyle=orthogonalEdgeStyle;rounded=0;orthogonalLoop=1;jettySize=auto;html=1;exitX=0;exitY=0.5;exitDx=0;exitDy=0;entryX=1;entryY=0.5;entryDx=0;entryDy=0;" parent="1" source="4r_Y0ZmjXoZ240VpbycW-7" target="4r_Y0ZmjXoZ240VpbycW-8" edge="1">
          <mxGeometry relative="1" as="geometry" />
        </mxCell>
        <mxCell id="4r_Y0ZmjXoZ240VpbycW-7" value="API (plant-id 3rd Party Tool - Pflanzenerkennung)" style="rounded=0;whiteSpace=wrap;html=1;" parent="1" vertex="1">
          <mxGeometry x="230" y="-310" width="120" height="60" as="geometry" />
        </mxCell>
        <mxCell id="4r_Y0ZmjXoZ240VpbycW-8" value="Amazon SageMaker (ML Modell für Pollenprognose)" style="rounded=0;whiteSpace=wrap;html=1;" parent="1" vertex="1">
          <mxGeometry x="70" y="-310" width="120" height="60" as="geometry" />
        </mxCell>
        <mxCell id="4r_Y0ZmjXoZ240VpbycW-9" value="Amazon Cognito (Authentifizierung)" style="rounded=0;whiteSpace=wrap;html=1;" parent="1" vertex="1">
          <mxGeometry x="433" y="-420" width="120" height="60" as="geometry" />
        </mxCell>
        <mxCell id="4r_Y0ZmjXoZ240VpbycW-11" value="Amazon QuickSight BI" style="rounded=0;whiteSpace=wrap;html=1;" parent="1" vertex="1">
          <mxGeometry x="653" y="-440" width="120" height="60" as="geometry" />
        </mxCell>
        <mxCell id="4r_Y0ZmjXoZ240VpbycW-12" value="AWS CodePipeline (Deployment)" style="rounded=0;whiteSpace=wrap;html=1;" parent="1" vertex="1">
          <mxGeometry x="433" y="-310" width="120" height="60" as="geometry" />
        </mxCell>
        <mxCell id="u-LYRZsdHviWgN9R1KnS-1" value="«component»&lt;br&gt;&lt;b&gt;Amazon SNS&lt;/b&gt;" style="html=1;dropTarget=0;whiteSpace=wrap;align=left;verticalAlign=top;" vertex="1" parent="1">
          <mxGeometry x="390" y="624" width="242.5" height="180" as="geometry" />
        </mxCell>
        <mxCell id="u-LYRZsdHviWgN9R1KnS-2" value="" style="shape=module;jettyWidth=8;jettyHeight=4;" vertex="1" parent="u-LYRZsdHviWgN9R1KnS-1">
          <mxGeometry x="1" width="20" height="20" relative="1" as="geometry">
            <mxPoint x="-27" y="8" as="offset" />
          </mxGeometry>
        </mxCell>
        <mxCell id="u-LYRZsdHviWgN9R1KnS-3" value="«component»&lt;br&gt;&lt;b&gt;:Notifications&lt;/b&gt;" style="html=1;dropTarget=0;whiteSpace=wrap;" vertex="1" parent="1">
          <mxGeometry x="414.5" y="684" width="180" height="90" as="geometry" />
        </mxCell>
        <mxCell id="u-LYRZsdHviWgN9R1KnS-4" value="" style="shape=module;jettyWidth=8;jettyHeight=4;" vertex="1" parent="u-LYRZsdHviWgN9R1KnS-3">
          <mxGeometry x="1" width="20" height="20" relative="1" as="geometry">
            <mxPoint x="-27" y="7" as="offset" />
          </mxGeometry>
        </mxCell>
        <mxCell id="u-LYRZsdHviWgN9R1KnS-6" value="&lt;div style=&quot;&quot;&gt;«component»&lt;/div&gt;&lt;b&gt;Amazon SageMaker&lt;/b&gt;" style="html=1;dropTarget=0;whiteSpace=wrap;verticalAlign=top;align=left;" vertex="1" parent="1">
          <mxGeometry x="-290" y="684" width="240" height="200" as="geometry" />
        </mxCell>
        <mxCell id="u-LYRZsdHviWgN9R1KnS-7" value="" style="shape=module;jettyWidth=8;jettyHeight=4;" vertex="1" parent="u-LYRZsdHviWgN9R1KnS-6">
          <mxGeometry x="1" width="20" height="20" relative="1" as="geometry">
            <mxPoint x="-27" y="8" as="offset" />
          </mxGeometry>
        </mxCell>
        <mxCell id="u-LYRZsdHviWgN9R1KnS-8" value="«component»&lt;br&gt;&lt;b&gt;Amazon S3&lt;/b&gt;" style="html=1;dropTarget=0;whiteSpace=wrap;align=left;verticalAlign=top;" vertex="1" parent="1">
          <mxGeometry x="325" y="300" width="197" height="202" as="geometry" />
        </mxCell>
        <mxCell id="u-LYRZsdHviWgN9R1KnS-9" value="" style="shape=module;jettyWidth=8;jettyHeight=4;" vertex="1" parent="u-LYRZsdHviWgN9R1KnS-8">
          <mxGeometry x="1" width="20" height="20" relative="1" as="geometry">
            <mxPoint x="-27" y="7" as="offset" />
          </mxGeometry>
        </mxCell>
        <mxCell id="u-LYRZsdHviWgN9R1KnS-10" value="«component»&lt;br&gt;&lt;b&gt;:Media&lt;/b&gt;" style="html=1;dropTarget=0;whiteSpace=wrap;" vertex="1" parent="1">
          <mxGeometry x="353.5" y="356" width="140" height="90" as="geometry" />
        </mxCell>
        <mxCell id="u-LYRZsdHviWgN9R1KnS-11" value="" style="shape=module;jettyWidth=8;jettyHeight=4;" vertex="1" parent="u-LYRZsdHviWgN9R1KnS-10">
          <mxGeometry x="1" width="20" height="20" relative="1" as="geometry">
            <mxPoint x="-27" y="7" as="offset" />
          </mxGeometry>
        </mxCell>
        <mxCell id="u-LYRZsdHviWgN9R1KnS-12" value="«component»&lt;br&gt;&lt;b&gt;:Plant ID API&lt;/b&gt;" style="html=1;dropTarget=0;whiteSpace=wrap;" vertex="1" parent="1">
          <mxGeometry x="-440" y="140" width="180" height="90" as="geometry" />
        </mxCell>
        <mxCell id="u-LYRZsdHviWgN9R1KnS-13" value="" style="shape=module;jettyWidth=8;jettyHeight=4;" vertex="1" parent="u-LYRZsdHviWgN9R1KnS-12">
          <mxGeometry x="1" width="20" height="20" relative="1" as="geometry">
            <mxPoint x="-27" y="7" as="offset" />
          </mxGeometry>
        </mxCell>
        <mxCell id="u-LYRZsdHviWgN9R1KnS-14" value="«component»&lt;br&gt;&lt;b&gt;:PollenPrognose&lt;/b&gt;" style="html=1;dropTarget=0;whiteSpace=wrap;" vertex="1" parent="1">
          <mxGeometry x="-260" y="760" width="180" height="90" as="geometry" />
        </mxCell>
        <mxCell id="u-LYRZsdHviWgN9R1KnS-15" value="" style="shape=module;jettyWidth=8;jettyHeight=4;" vertex="1" parent="u-LYRZsdHviWgN9R1KnS-14">
          <mxGeometry x="1" width="20" height="20" relative="1" as="geometry">
            <mxPoint x="-27" y="7" as="offset" />
          </mxGeometry>
        </mxCell>
        <mxCell id="u-LYRZsdHviWgN9R1KnS-21" value="&lt;div style=&quot;&quot;&gt;«component»&lt;/div&gt;&lt;b&gt;Amazon Location Service&lt;/b&gt;" style="html=1;dropTarget=0;whiteSpace=wrap;verticalAlign=top;align=left;" vertex="1" parent="1">
          <mxGeometry x="-750" y="330" width="240" height="180" as="geometry" />
        </mxCell>
        <mxCell id="u-LYRZsdHviWgN9R1KnS-22" value="" style="shape=module;jettyWidth=8;jettyHeight=4;" vertex="1" parent="u-LYRZsdHviWgN9R1KnS-21">
          <mxGeometry x="1" width="20" height="20" relative="1" as="geometry">
            <mxPoint x="-27" y="8" as="offset" />
          </mxGeometry>
        </mxCell>
        <mxCell id="u-LYRZsdHviWgN9R1KnS-23" value="«component»&lt;br&gt;&lt;b&gt;:Map&lt;/b&gt;" style="html=1;dropTarget=0;whiteSpace=wrap;" vertex="1" parent="1">
          <mxGeometry x="-720" y="387" width="180" height="90" as="geometry" />
        </mxCell>
        <mxCell id="u-LYRZsdHviWgN9R1KnS-26" value="«component»&lt;br&gt;&lt;b&gt;Amazon Cognito&lt;/b&gt;" style="html=1;dropTarget=0;whiteSpace=wrap;align=left;verticalAlign=top;" vertex="1" parent="1">
          <mxGeometry x="130" y="61" width="244" height="152" as="geometry" />
        </mxCell>
        <mxCell id="u-LYRZsdHviWgN9R1KnS-27" value="" style="shape=module;jettyWidth=8;jettyHeight=4;" vertex="1" parent="u-LYRZsdHviWgN9R1KnS-26">
          <mxGeometry x="1" width="20" height="20" relative="1" as="geometry">
            <mxPoint x="-27" y="7" as="offset" />
          </mxGeometry>
        </mxCell>
        <mxCell id="u-LYRZsdHviWgN9R1KnS-28" value="«component»&lt;br&gt;&lt;b&gt;:Login&lt;/b&gt;" style="html=1;dropTarget=0;whiteSpace=wrap;" vertex="1" parent="1">
          <mxGeometry x="180" y="110" width="170" height="90" as="geometry" />
        </mxCell>
        <mxCell id="u-LYRZsdHviWgN9R1KnS-29" value="" style="shape=module;jettyWidth=8;jettyHeight=4;" vertex="1" parent="u-LYRZsdHviWgN9R1KnS-28">
          <mxGeometry x="1" width="20" height="20" relative="1" as="geometry">
            <mxPoint x="-27" y="7" as="offset" />
          </mxGeometry>
        </mxCell>
        <mxCell id="u-LYRZsdHviWgN9R1KnS-31" value="&lt;b&gt;Dynamo DB&amp;nbsp;&lt;/b&gt;&lt;div&gt;NoSQL Database&lt;/div&gt;" style="shape=datastore;whiteSpace=wrap;html=1;" vertex="1" parent="1">
          <mxGeometry x="75" y="810" width="140" height="80" as="geometry" />
        </mxCell>
        <mxCell id="u-LYRZsdHviWgN9R1KnS-34" value="«component»&lt;br&gt;&lt;b&gt;Amazon QuickSight BI&lt;/b&gt;" style="html=1;dropTarget=0;whiteSpace=wrap;align=left;verticalAlign=top;" vertex="1" parent="1">
          <mxGeometry x="361" y="960" width="264" height="182" as="geometry" />
        </mxCell>
        <mxCell id="u-LYRZsdHviWgN9R1KnS-35" value="" style="shape=module;jettyWidth=8;jettyHeight=4;" vertex="1" parent="u-LYRZsdHviWgN9R1KnS-34">
          <mxGeometry x="1" width="20" height="20" relative="1" as="geometry">
            <mxPoint x="-27" y="7" as="offset" />
          </mxGeometry>
        </mxCell>
        <mxCell id="u-LYRZsdHviWgN9R1KnS-36" value="«component»&lt;br&gt;&lt;b&gt;:Dashboards&lt;/b&gt;" style="html=1;dropTarget=0;whiteSpace=wrap;" vertex="1" parent="1">
          <mxGeometry x="421" y="1010" width="170" height="90" as="geometry" />
        </mxCell>
        <mxCell id="u-LYRZsdHviWgN9R1KnS-37" value="" style="shape=module;jettyWidth=8;jettyHeight=4;" vertex="1" parent="u-LYRZsdHviWgN9R1KnS-36">
          <mxGeometry x="1" width="20" height="20" relative="1" as="geometry">
            <mxPoint x="-27" y="7" as="offset" />
          </mxGeometry>
        </mxCell>
        <mxCell id="u-LYRZsdHviWgN9R1KnS-40" style="edgeStyle=orthogonalEdgeStyle;rounded=0;orthogonalLoop=1;jettySize=auto;html=1;exitX=0.5;exitY=1;exitDx=0;exitDy=0;entryX=0.451;entryY=0.005;entryDx=0;entryDy=0;entryPerimeter=0;" edge="1" parent="1" source="u-LYRZsdHviWgN9R1KnS-31" target="u-LYRZsdHviWgN9R1KnS-34">
          <mxGeometry relative="1" as="geometry" />
        </mxCell>
        <mxCell id="u-LYRZsdHviWgN9R1KnS-50" style="edgeStyle=orthogonalEdgeStyle;rounded=0;orthogonalLoop=1;jettySize=auto;html=1;exitX=0.5;exitY=1;exitDx=0;exitDy=0;" edge="1" parent="1" source="u-LYRZsdHviWgN9R1KnS-47" target="u-LYRZsdHviWgN9R1KnS-8">
          <mxGeometry relative="1" as="geometry" />
        </mxCell>
        <mxCell id="u-LYRZsdHviWgN9R1KnS-65" style="edgeStyle=orthogonalEdgeStyle;rounded=0;orthogonalLoop=1;jettySize=auto;html=1;exitX=0.5;exitY=1;exitDx=0;exitDy=0;" edge="1" parent="1" source="u-LYRZsdHviWgN9R1KnS-47">
          <mxGeometry relative="1" as="geometry">
            <mxPoint x="-80" y="290" as="targetPoint" />
          </mxGeometry>
        </mxCell>
        <mxCell id="u-LYRZsdHviWgN9R1KnS-76" style="edgeStyle=orthogonalEdgeStyle;rounded=0;orthogonalLoop=1;jettySize=auto;html=1;exitX=1;exitY=0.5;exitDx=0;exitDy=0;entryX=0;entryY=0.5;entryDx=0;entryDy=0;startArrow=classic;startFill=1;" edge="1" parent="1" source="u-LYRZsdHviWgN9R1KnS-47" target="u-LYRZsdHviWgN9R1KnS-26">
          <mxGeometry relative="1" as="geometry" />
        </mxCell>
        <mxCell id="u-LYRZsdHviWgN9R1KnS-47" value="«component»&lt;br&gt;&lt;b&gt;AWS API Gateway&lt;/b&gt;" style="html=1;dropTarget=0;whiteSpace=wrap;" vertex="1" parent="1">
          <mxGeometry x="-68" y="92" width="140" height="90" as="geometry" />
        </mxCell>
        <mxCell id="u-LYRZsdHviWgN9R1KnS-48" value="" style="shape=module;jettyWidth=8;jettyHeight=4;" vertex="1" parent="u-LYRZsdHviWgN9R1KnS-47">
          <mxGeometry x="1" width="20" height="20" relative="1" as="geometry">
            <mxPoint x="-27" y="7" as="offset" />
          </mxGeometry>
        </mxCell>
        <mxCell id="u-LYRZsdHviWgN9R1KnS-51" value="&lt;div style=&quot;&quot;&gt;«component»&lt;/div&gt;&lt;b&gt;Amazon CodePipeline&lt;/b&gt;" style="html=1;dropTarget=0;whiteSpace=wrap;verticalAlign=top;align=left;" vertex="1" parent="1">
          <mxGeometry x="-750" y="-420" width="240" height="180" as="geometry" />
        </mxCell>
        <mxCell id="u-LYRZsdHviWgN9R1KnS-52" value="" style="shape=module;jettyWidth=8;jettyHeight=4;" vertex="1" parent="u-LYRZsdHviWgN9R1KnS-51">
          <mxGeometry x="1" width="20" height="20" relative="1" as="geometry">
            <mxPoint x="-27" y="8" as="offset" />
          </mxGeometry>
        </mxCell>
        <mxCell id="u-LYRZsdHviWgN9R1KnS-53" value="«component»&lt;br&gt;&lt;b&gt;:Testing&lt;/b&gt;" style="html=1;dropTarget=0;whiteSpace=wrap;" vertex="1" parent="1">
          <mxGeometry x="-720" y="-350" width="180" height="90" as="geometry" />
        </mxCell>
        <mxCell id="u-LYRZsdHviWgN9R1KnS-54" value="" style="shape=module;jettyWidth=8;jettyHeight=4;" vertex="1" parent="u-LYRZsdHviWgN9R1KnS-53">
          <mxGeometry x="1" width="20" height="20" relative="1" as="geometry">
            <mxPoint x="-27" y="7" as="offset" />
          </mxGeometry>
        </mxCell>
        <mxCell id="u-LYRZsdHviWgN9R1KnS-58" value="&lt;div style=&quot;&quot;&gt;«component»&lt;/div&gt;&lt;b&gt;Amazon Lambda&lt;/b&gt;" style="html=1;dropTarget=0;whiteSpace=wrap;verticalAlign=top;align=left;" vertex="1" parent="1">
          <mxGeometry x="-216" y="300" width="440" height="310" as="geometry" />
        </mxCell>
        <mxCell id="u-LYRZsdHviWgN9R1KnS-59" value="" style="shape=module;jettyWidth=8;jettyHeight=4;" vertex="1" parent="u-LYRZsdHviWgN9R1KnS-58">
          <mxGeometry x="1" width="20" height="20" relative="1" as="geometry">
            <mxPoint x="-27" y="8" as="offset" />
          </mxGeometry>
        </mxCell>
        <mxCell id="u-LYRZsdHviWgN9R1KnS-60" value="«component»&lt;br&gt;&lt;b&gt;PlantIdentification&lt;/b&gt;" style="html=1;dropTarget=0;whiteSpace=wrap;" vertex="1" parent="1">
          <mxGeometry x="-200" y="340" width="140" height="90" as="geometry" />
        </mxCell>
        <mxCell id="u-LYRZsdHviWgN9R1KnS-61" value="" style="shape=module;jettyWidth=8;jettyHeight=4;" vertex="1" parent="u-LYRZsdHviWgN9R1KnS-60">
          <mxGeometry x="1" width="20" height="20" relative="1" as="geometry">
            <mxPoint x="-27" y="7" as="offset" />
          </mxGeometry>
        </mxCell>
        <mxCell id="u-LYRZsdHviWgN9R1KnS-73" style="edgeStyle=orthogonalEdgeStyle;rounded=0;orthogonalLoop=1;jettySize=auto;html=1;exitX=0.5;exitY=1;exitDx=0;exitDy=0;entryX=0.5;entryY=0;entryDx=0;entryDy=0;" edge="1" parent="1" source="u-LYRZsdHviWgN9R1KnS-67" target="u-LYRZsdHviWgN9R1KnS-47">
          <mxGeometry relative="1" as="geometry" />
        </mxCell>
        <mxCell id="u-LYRZsdHviWgN9R1KnS-67" value="«component»&lt;br&gt;&lt;b&gt;PollenWatch Web&lt;/b&gt;" style="html=1;dropTarget=0;whiteSpace=wrap;" vertex="1" parent="1">
          <mxGeometry x="-240" y="-80" width="140" height="90" as="geometry" />
        </mxCell>
        <mxCell id="u-LYRZsdHviWgN9R1KnS-68" value="" style="shape=module;jettyWidth=8;jettyHeight=4;" vertex="1" parent="u-LYRZsdHviWgN9R1KnS-67">
          <mxGeometry x="1" width="20" height="20" relative="1" as="geometry">
            <mxPoint x="-27" y="7" as="offset" />
          </mxGeometry>
        </mxCell>
        <mxCell id="u-LYRZsdHviWgN9R1KnS-74" style="edgeStyle=orthogonalEdgeStyle;rounded=0;orthogonalLoop=1;jettySize=auto;html=1;exitX=0.5;exitY=1;exitDx=0;exitDy=0;" edge="1" parent="1" source="u-LYRZsdHviWgN9R1KnS-69">
          <mxGeometry relative="1" as="geometry">
            <mxPoint x="0.23529411764729957" y="90" as="targetPoint" />
          </mxGeometry>
        </mxCell>
        <mxCell id="u-LYRZsdHviWgN9R1KnS-69" value="«component»&lt;br&gt;&lt;b&gt;PollenWatch Android&lt;/b&gt;" style="html=1;dropTarget=0;whiteSpace=wrap;" vertex="1" parent="1">
          <mxGeometry x="-70" y="-80" width="140" height="90" as="geometry" />
        </mxCell>
        <mxCell id="u-LYRZsdHviWgN9R1KnS-70" value="" style="shape=module;jettyWidth=8;jettyHeight=4;" vertex="1" parent="u-LYRZsdHviWgN9R1KnS-69">
          <mxGeometry x="1" width="20" height="20" relative="1" as="geometry">
            <mxPoint x="-27" y="7" as="offset" />
          </mxGeometry>
        </mxCell>
        <mxCell id="u-LYRZsdHviWgN9R1KnS-75" style="edgeStyle=orthogonalEdgeStyle;rounded=0;orthogonalLoop=1;jettySize=auto;html=1;exitX=0.5;exitY=1;exitDx=0;exitDy=0;entryX=0.5;entryY=0;entryDx=0;entryDy=0;" edge="1" parent="1" source="u-LYRZsdHviWgN9R1KnS-71" target="u-LYRZsdHviWgN9R1KnS-47">
          <mxGeometry relative="1" as="geometry" />
        </mxCell>
        <mxCell id="u-LYRZsdHviWgN9R1KnS-71" value="«component»&lt;br&gt;&lt;b&gt;PollenWatch iOS&lt;/b&gt;" style="html=1;dropTarget=0;whiteSpace=wrap;" vertex="1" parent="1">
          <mxGeometry x="90" y="-80" width="140" height="90" as="geometry" />
        </mxCell>
        <mxCell id="u-LYRZsdHviWgN9R1KnS-72" value="" style="shape=module;jettyWidth=8;jettyHeight=4;" vertex="1" parent="u-LYRZsdHviWgN9R1KnS-71">
          <mxGeometry x="1" width="20" height="20" relative="1" as="geometry">
            <mxPoint x="-27" y="7" as="offset" />
          </mxGeometry>
        </mxCell>
        <mxCell id="u-LYRZsdHviWgN9R1KnS-77" value="«component»&lt;br&gt;&lt;b&gt;:processing 1&lt;/b&gt;" style="html=1;dropTarget=0;whiteSpace=wrap;" vertex="1" parent="1">
          <mxGeometry x="-200" y="455" width="140" height="90" as="geometry" />
        </mxCell>
        <mxCell id="u-LYRZsdHviWgN9R1KnS-78" value="" style="shape=module;jettyWidth=8;jettyHeight=4;" vertex="1" parent="u-LYRZsdHviWgN9R1KnS-77">
          <mxGeometry x="1" width="20" height="20" relative="1" as="geometry">
            <mxPoint x="-27" y="7" as="offset" />
          </mxGeometry>
        </mxCell>
        <mxCell id="u-LYRZsdHviWgN9R1KnS-79" value="«component»&lt;br&gt;&lt;b&gt;:processing 1&lt;/b&gt;" style="html=1;dropTarget=0;whiteSpace=wrap;" vertex="1" parent="1">
          <mxGeometry x="-30" y="340" width="140" height="90" as="geometry" />
        </mxCell>
        <mxCell id="u-LYRZsdHviWgN9R1KnS-80" value="" style="shape=module;jettyWidth=8;jettyHeight=4;" vertex="1" parent="u-LYRZsdHviWgN9R1KnS-79">
          <mxGeometry x="1" width="20" height="20" relative="1" as="geometry">
            <mxPoint x="-27" y="7" as="offset" />
          </mxGeometry>
        </mxCell>
        <mxCell id="u-LYRZsdHviWgN9R1KnS-81" value="«component»&lt;br&gt;&lt;b&gt;:processing 1&lt;/b&gt;" style="html=1;dropTarget=0;whiteSpace=wrap;" vertex="1" parent="1">
          <mxGeometry x="-30" y="455" width="140" height="90" as="geometry" />
        </mxCell>
        <mxCell id="u-LYRZsdHviWgN9R1KnS-82" value="" style="shape=module;jettyWidth=8;jettyHeight=4;" vertex="1" parent="u-LYRZsdHviWgN9R1KnS-81">
          <mxGeometry x="1" width="20" height="20" relative="1" as="geometry">
            <mxPoint x="-27" y="7" as="offset" />
          </mxGeometry>
        </mxCell>
      </root>
    </mxGraphModel>
  </diagram>
</mxfile>
